<svg width="153" height="40" viewBox="0 0 153 40" fill="none" xmlns="http://www.w3.org/2000/svg">
<path d="M38.4329 12.247C37.9421 12.9436 37.6968 14.0747 37.6968 15.6399V23.5156C37.6968 25.3234 37.9195 26.5677 38.3652 27.2492C38.8106 27.9303 39.6295 28.2716 40.8211 28.2716C41.9227 28.2716 42.7185 27.898 43.2093 27.151C43.6999 26.4033 43.9454 25.192 43.9454 23.5156V15.6399C43.9454 13.9535 43.7227 12.7922 43.277 12.156C42.8313 11.5201 42.0127 11.2019 40.8211 11.2019C39.7195 11.2019 38.9234 11.5503 38.4329 12.247ZM29 9.05125H31.8989V18.2295H34.7981V15.5942C34.7981 13.1913 35.2685 11.4571 36.2097 10.3917C37.151 9.32648 38.6882 8.79364 40.8211 8.79364C43.1141 8.79364 44.6913 9.28109 45.5527 10.2553C46.4138 11.2297 46.8444 13.0095 46.8444 15.5942V23.4701C46.8444 26.0148 46.3735 27.8523 45.4325 28.9832C44.4912 30.114 42.9542 30.6797 40.8211 30.6797C38.5279 30.6797 36.9509 30.1623 36.0895 29.1271C35.2284 28.0918 34.7981 26.2068 34.7981 23.4701V20.6378H31.8989V30.4221H30.4569H29V9.05125Z" fill="white"/>
<path d="M53.5906 18.5475H55.4681C56.8299 18.5475 57.756 18.2875 58.2468 17.7673C58.7374 17.2477 58.9832 16.2705 58.9832 14.8369V15.0639C58.9832 13.6911 58.7302 12.7466 58.2243 12.2317C57.7186 11.7167 56.7999 11.4591 55.4681 11.4591H53.5906V18.5475ZM50.6914 9.05107H55.4681C57.9015 9.05107 59.5786 9.47767 60.5 10.3309C61.4211 11.1841 61.8819 12.7416 61.8819 15.0033V14.7761C61.8819 16.957 61.3788 18.5325 60.3725 19.5015C59.366 20.4709 57.7311 20.9557 55.4681 20.9557H53.5906V30.4219H52.1487H50.6914V9.05107Z" fill="white"/>
<path d="M65.0625 9.05107H67.9615V17.7296H69.3158C70.5494 17.7296 71.4295 17.4291 71.956 16.8285C72.4828 16.2277 72.7461 15.2208 72.7461 13.8067V13.11C72.7461 11.6257 72.982 10.5783 73.4534 9.96753C73.9245 9.35647 74.7419 9.05107 75.9057 9.05107H76.9888V11.6865H76.3567C76.0456 11.6865 75.8246 11.8584 75.6943 12.2015C75.5637 12.5448 75.4982 13.1353 75.4982 13.9736V14.3823C75.4982 16.2809 75.0719 17.5579 74.219 18.2143C73.8875 18.4668 73.4459 18.6739 72.8939 18.8353C73.6658 18.9768 74.2672 19.2295 74.6978 19.5935C75.5195 20.271 76.0358 21.5901 76.2463 23.5512L76.6972 27.7825C76.7572 28.3089 76.8297 28.7685 76.9149 29.1633C76.9999 29.5573 77.1225 29.9769 77.2828 30.4219H75.8109H74.3236C74.1736 30.1486 74.0558 29.8306 73.9708 29.4659C73.8856 29.1022 73.8079 28.6122 73.738 27.995L73.3175 24.1425C73.157 22.7161 72.8416 21.6976 72.3712 21.0858C71.9003 20.4742 71.1847 20.1681 70.223 20.1681H67.9699H67.9615V30.4219H66.5198H65.0625V9.05107Z" fill="white"/>
<path d="M88.5875 27.2791C89.0776 26.6184 89.3229 25.5447 89.3229 24.0605V15.0942C89.3229 13.6203 89.1002 12.6029 88.655 12.0423C88.2091 11.4822 87.3904 11.2019 86.1988 11.2019C85.0977 11.2019 84.3011 11.5503 83.8106 12.247C83.32 12.9436 83.0745 14.0747 83.0745 15.6399V23.5156C83.0745 25.3234 83.2972 26.5677 83.7431 27.2492C84.1888 27.9303 85.0072 28.2716 86.1988 28.2716C87.2999 28.2716 88.0963 27.9404 88.5875 27.2791ZM81.4672 29.1271C80.6061 28.0918 80.1758 26.2068 80.1758 23.4701V15.5942C80.1758 13.1913 80.6459 11.4571 81.5875 10.3917C82.5287 9.32648 84.0659 8.79364 86.1988 8.79364C88.3715 8.79364 89.9191 9.32382 90.8404 10.3842C91.7615 11.4441 92.2223 13.2164 92.2223 15.7002V24.6669C92.2223 26.7874 91.7515 28.3197 90.8102 29.2635C89.8691 30.2077 88.3317 30.6797 86.1988 30.6797C83.9059 30.6797 82.3283 30.1623 81.4672 29.1271Z" fill="white"/>
<path d="M98.9651 18.5475H100.843C102.205 18.5475 103.131 18.2875 103.622 17.7673C104.112 17.2477 104.358 16.2705 104.358 14.8369V15.0639C104.358 13.6911 104.105 12.7466 103.599 12.2317C103.093 11.7167 102.174 11.4591 100.843 11.4591H98.9651V18.5475ZM96.0664 9.05107H100.843C103.276 9.05107 104.953 9.47767 105.875 10.3309C106.796 11.1841 107.257 12.7416 107.257 15.0033V14.7761C107.257 16.957 106.753 18.5325 105.747 19.5015C104.74 20.4709 103.106 20.9557 100.843 20.9557H98.9651V30.4219H97.5232H96.0664V9.05107Z" fill="white"/>
<path d="M111.676 30.4219H110.219V9.05107H122.145V30.4219H120.703H119.246V11.4591H113.117V30.4219H111.676Z" fill="white"/>
<path d="M130.767 30.4219H127.786L129.911 23.8811V23.8785L125.059 9.05107H126.632H128.206L131.305 19.4412H131.305L134.575 9.05107H136.065H137.555L130.767 30.4219Z" fill="white"/>
<path d="M151.78 23.4701V24.1064C151.85 26.4291 151.449 28.1046 150.578 29.1345C149.707 30.1642 148.26 30.6797 146.237 30.6797C144.244 30.6797 142.77 30.2029 141.813 29.248C140.857 28.2939 140.379 26.8226 140.379 24.8334V15.3216C140.379 13.0194 140.847 11.3559 141.784 10.3311C142.72 9.3062 144.244 8.79364 146.357 8.79364C148.36 8.79364 149.792 9.2584 150.653 10.1872C151.424 10.995 151.805 12.2318 151.795 13.8977L151.78 14.6097V15.2458H148.881V14.6097C148.921 13.3173 148.763 12.4264 148.408 11.9366C148.052 11.447 147.379 11.2019 146.388 11.2019C145.286 11.2019 144.492 11.4849 144.006 12.0503C143.521 12.6157 143.278 13.5397 143.278 14.8217V24.333C143.278 25.8279 143.483 26.8579 143.894 27.423C144.305 27.9887 145.056 28.2716 146.147 28.2716C147.139 28.2716 147.847 27.9455 148.272 27.2941C148.698 26.6427 148.9 25.5805 148.881 24.1064V23.4701H151.78Z" fill="white"/>
<path d="M33.3786 37.5006C33.3786 37.9343 33.4869 38.2708 33.7029 38.5103C33.9189 38.7498 34.2026 38.8695 34.5534 38.8695C34.9132 38.8695 35.2 38.7498 35.4143 38.5091C35.6286 38.2686 35.7359 37.9232 35.7359 37.4724C35.7359 37.045 35.6303 36.7083 35.4196 36.4627C35.2084 36.2174 34.9233 36.0945 34.5635 36.0945C34.1975 36.0945 33.9083 36.2186 33.6964 36.4678C33.4847 36.7162 33.3786 37.0608 33.3786 37.5006ZM31.6797 35.7689H32.171V37.3087H32.8852C32.9205 36.8217 33.0935 36.434 33.4041 36.1448C33.7144 35.8551 34.0994 35.7107 34.5585 35.7107C35.043 35.7107 35.4443 35.8679 35.7626 36.1832C36.0808 36.4983 36.2397 36.9253 36.2397 37.4654C36.2397 38.027 36.081 38.4664 35.7638 38.7829C35.4465 39.0994 35.0406 39.2578 34.546 39.2578C34.097 39.2578 33.7228 39.1209 33.423 38.8468C33.1235 38.5733 32.9474 38.1948 32.8953 37.7114H32.171V39.1993H31.6797V35.7689Z" fill="white"/>
<path d="M39.9876 37.4001H40.9471C41.2644 37.4001 41.4898 37.3455 41.623 37.2359C41.7564 37.1268 41.8231 36.9734 41.8231 36.775C41.8231 36.6314 41.7838 36.5087 41.7053 36.4067C41.6271 36.3041 41.5236 36.2366 41.3952 36.2041C41.3127 36.1843 41.1598 36.1736 40.9368 36.1736H39.9876V37.4001ZM39.4961 39.1992V35.7688H40.8965C41.1427 35.7688 41.3309 35.7799 41.4612 35.8014C41.6436 35.8296 41.796 35.8831 41.9194 35.9616C42.0427 36.0408 42.1419 36.1509 42.217 36.2934C42.2919 36.4349 42.3295 36.5913 42.3295 36.7612C42.3295 37.0527 42.2292 37.2994 42.0283 37.5018C41.8275 37.7038 41.4643 37.8042 40.9395 37.8042H39.9876V39.1992H39.4961Z" fill="white"/>
<path d="M45.5547 35.7688H46.0004V38.4853L47.9753 35.7688H48.469V39.1992H48.0233V36.4896L46.046 39.1992H45.5547V35.7688Z" fill="white"/>
<path d="M53.9729 36.1738H52.6791V36.3491C52.6791 36.6412 52.6508 37.0399 52.5941 37.5464C52.5375 38.0526 52.4264 38.4686 52.2612 38.7948H53.9729V36.1738ZM52.2053 35.769H54.464V38.7948H54.7983V40H54.36V39.1994H51.9065V40H51.4688V38.7948H51.7572C52.056 38.3783 52.2053 37.5367 52.2053 36.2702V35.769Z" fill="white"/>
<path d="M57.9805 35.7688H58.4261V38.4853L60.4011 35.7688H60.8948V39.1992H60.4493V36.4896L58.4717 39.1992H57.9805V35.7688Z" fill="white"/>
<path d="M66.9414 39.1992H66.4504V37.8161C66.0098 37.9679 65.6238 38.0433 65.2934 38.0433C65.0349 38.0433 64.8069 37.9877 64.6096 37.876C64.4121 37.7647 64.2798 37.6231 64.2131 37.4515C64.1464 37.2799 64.1133 37.0551 64.1133 36.7777V35.7688H64.6046V36.735C64.6046 37.1096 64.6782 37.3559 64.8261 37.4739C64.9739 37.5915 65.1513 37.6502 65.3589 37.6502C65.705 37.6502 66.0688 37.5792 66.4504 37.4375V35.7688H66.9414V39.1992Z" fill="white"/>
<path d="M70.3516 39.1992V35.7688H73.0357V36.1736H70.8431V37.2248H72.8965V37.6268H70.8431V38.7946H73.1216V39.1992H70.3516Z" fill="white"/>
<path d="M79.0402 37.997L79.5315 38.1112C79.4283 38.4845 79.243 38.7684 78.9757 38.9642C78.7078 39.1602 78.3812 39.2578 77.9943 39.2578C77.5945 39.2578 77.269 39.1829 77.0182 39.032C76.7677 38.8814 76.5769 38.6639 76.4461 38.3782C76.3153 38.0926 76.25 37.7862 76.25 37.4584C76.25 37.1013 76.3239 36.7897 76.4713 36.5233C76.6191 36.2578 76.8294 36.0561 77.102 35.9176C77.3744 35.7795 77.6744 35.7107 78.0022 35.7107C78.3733 35.7107 78.6858 35.7976 78.939 35.9727C79.1922 36.147 79.3683 36.3927 79.4679 36.7095L78.9843 36.8152C78.8982 36.5651 78.7734 36.3831 78.6097 36.2701C78.446 36.1561 78.2398 36.099 77.9922 36.099C77.7066 36.099 77.4682 36.1619 77.2767 36.2887C77.085 36.4147 76.9506 36.5842 76.8728 36.7971C76.795 37.0105 76.7562 37.2303 76.7562 37.456C76.7562 37.7478 76.8022 38.0021 76.8944 38.2206C76.9863 38.4374 77.1294 38.6001 77.3233 38.708C77.5177 38.816 77.7279 38.8695 77.954 38.8695C78.229 38.8695 78.4621 38.7962 78.6526 38.6491C78.8434 38.5028 78.9728 38.2855 79.0402 37.997Z" fill="white"/>
<path d="M82.7383 35.7688H83.2293V37.2712C83.4537 37.2712 83.6114 37.2311 83.7028 37.1509C83.7938 37.0703 83.9107 36.8772 84.052 36.5715C84.1552 36.3468 84.2402 36.1886 84.3067 36.0954C84.3736 36.0025 84.4684 35.9245 84.5916 35.8612C84.7149 35.7982 84.8503 35.7669 84.9991 35.7669C85.1887 35.7669 85.288 35.768 85.2981 35.7714V36.1645C85.2808 36.1645 85.2482 36.164 85.199 36.1618C85.1455 36.1606 85.1124 36.1597 85.1006 36.1597C84.9434 36.1597 84.827 36.1948 84.7509 36.2649C84.6734 36.3349 84.5846 36.4845 84.4852 36.7145C84.3602 37.0044 84.2546 37.1872 84.1687 37.2632C84.0823 37.3385 83.9798 37.3989 83.8596 37.4441C84.0993 37.5049 84.336 37.7091 84.5688 38.0577L85.3336 39.1992H84.7233L84.1032 38.2678C83.9325 38.0107 83.7895 37.8342 83.6752 37.7381C83.5603 37.6417 83.4115 37.5942 83.2293 37.5942V39.1992H82.7383V35.7688Z" fill="white"/>
<path d="M89.0086 37.7903H90.2667L89.8791 36.8409C89.761 36.552 89.6734 36.3146 89.6161 36.1292C89.5688 36.3489 89.5021 36.5676 89.4161 36.784L89.0086 37.7903ZM87.9375 39.1992L89.3629 35.7688H89.8918L91.4113 39.1992H90.8516L90.4186 38.1606H88.8665L88.459 39.1992H87.9375Z" fill="white"/>
<path d="M96.8422 36.1481H95.6679C95.3923 36.1481 95.1915 36.2002 95.0638 36.305C94.9363 36.4095 94.8725 36.5423 94.8725 36.705C94.8725 36.8156 94.9056 36.9185 94.9714 37.0126C95.0374 37.107 95.1334 37.1754 95.2601 37.2183C95.3866 37.261 95.5625 37.2825 95.7869 37.2825H96.8422V36.1481ZM96.8422 39.1992V37.676H96.2731C96.1462 37.676 96.0552 37.6813 95.9995 37.692C95.9232 37.7091 95.8491 37.74 95.7756 37.7839C95.7017 37.8274 95.6189 37.9037 95.5258 38.0128C95.4331 38.1217 95.3148 38.2796 95.1711 38.4853L94.6803 39.1992H94.0625L94.7083 38.2657C94.8365 38.0834 94.9723 37.931 95.1161 37.8096C95.1835 37.7531 95.2817 37.6963 95.412 37.6384C95.0559 37.5937 94.7923 37.4872 94.6222 37.3199C94.4515 37.1531 94.3666 36.9484 94.3666 36.705C94.3666 36.5162 94.4177 36.3436 94.5207 36.1874C94.6239 36.0319 94.7614 35.9232 94.9337 35.8612C95.106 35.7997 95.3573 35.7688 95.688 35.7688H97.3339V39.1992H96.8422Z" fill="white"/>
<path d="M104.773 35.7688H105.265V37.2712C105.489 37.2712 105.647 37.2311 105.738 37.1509C105.829 37.0703 105.946 36.8772 106.087 36.5715C106.19 36.3468 106.276 36.1886 106.342 36.0954C106.409 36.0025 106.504 35.9245 106.627 35.8612C106.75 35.7982 106.886 35.7669 107.034 35.7669C107.224 35.7669 107.323 35.768 107.333 35.7714V36.1645C107.316 36.1645 107.283 36.164 107.234 36.1618C107.181 36.1606 107.148 36.1597 107.136 36.1597C106.979 36.1597 106.862 36.1948 106.786 36.2649C106.709 36.3349 106.62 36.4845 106.521 36.7145C106.396 37.0044 106.29 37.1872 106.204 37.2632C106.118 37.3385 106.015 37.3989 105.895 37.4441C106.135 37.5049 106.371 37.7091 106.604 38.0577L107.369 39.1992H106.759L106.139 38.2678C105.968 38.0107 105.825 37.8342 105.71 37.7381C105.596 37.6417 105.447 37.5942 105.265 37.5942V39.1992H104.773V35.7688Z" fill="white"/>
<path d="M110.737 37.5361C110.737 37.949 110.857 38.2749 111.098 38.5125C111.339 38.7508 111.64 38.8695 112.003 38.8695C112.373 38.8695 112.677 38.7498 112.916 38.5091C113.155 38.2686 113.274 37.928 113.274 37.4869C113.274 37.2071 113.223 36.964 113.12 36.7553C113.019 36.5467 112.869 36.3855 112.672 36.2708C112.476 36.1566 112.255 36.099 112.011 36.099C111.663 36.099 111.363 36.209 111.113 36.4303C110.862 36.6506 110.737 37.0195 110.737 37.5361ZM110.23 37.5284C110.23 36.9596 110.396 36.5137 110.727 36.1911C111.058 35.8689 111.484 35.7085 112.008 35.7085C112.35 35.7085 112.66 35.7839 112.935 35.9352C113.21 36.0866 113.42 36.2978 113.564 36.5682C113.709 36.8389 113.78 37.1455 113.78 37.4888C113.78 37.8365 113.704 38.1477 113.553 38.4227C113.401 38.6974 113.185 38.9048 112.907 39.046C112.628 39.1873 112.328 39.2578 112.006 39.2578C111.656 39.2578 111.344 39.1795 111.068 39.024C110.794 38.8678 110.585 38.6549 110.443 38.385C110.301 38.1156 110.23 37.83 110.23 37.5284Z" fill="white"/>
<path d="M116.992 39.1992V35.7688H117.732L118.61 38.1978C118.692 38.424 118.751 38.5938 118.788 38.7057C118.83 38.5807 118.896 38.3979 118.985 38.1555L119.874 35.7688H120.535V39.1992H120.061V36.3282L118.982 39.1992H118.54L117.466 36.2789V39.1992H116.992Z" fill="white"/>
<path d="M123.922 35.7688H126.841V39.1992H126.348V36.1736H124.413V39.1992H123.922V35.7688Z" fill="white"/>
<path d="M130.903 37.7903H132.161L131.774 36.8409C131.656 36.552 131.568 36.3146 131.511 36.1292C131.463 36.3489 131.397 36.5676 131.311 36.784L130.903 37.7903ZM129.832 39.1992L131.258 35.7688H131.786L133.306 39.1992H132.746L132.313 38.1606H130.761L130.353 39.1992H129.832Z" fill="white"/>
<path d="M136.305 39.1992V35.7688H136.796V37.1775H138.725V35.7688H139.217V39.1992H138.725V37.5824H136.796V39.1992H136.305Z" fill="white"/>
<path d="M142.633 35.7688H143.078V38.4853L145.053 35.7688H145.547V39.1992H145.102V36.4896L143.124 39.1992H142.633V35.7688Z" fill="white"/>
<path d="M151.393 36.1481H150.218C149.943 36.1481 149.742 36.2002 149.615 36.305C149.487 36.4095 149.423 36.5423 149.423 36.705C149.423 36.8156 149.456 36.9185 149.522 37.0126C149.588 37.107 149.684 37.1754 149.811 37.2183C149.937 37.261 150.113 37.2825 150.337 37.2825H151.393V36.1481ZM151.393 39.1992V37.676H150.824C150.697 37.676 150.606 37.6813 150.55 37.692C150.474 37.7091 150.4 37.74 150.326 37.7839C150.252 37.8274 150.17 37.9037 150.077 38.0128C149.984 38.1217 149.866 38.2796 149.722 38.4853L149.231 39.1992H148.613L149.259 38.2657C149.387 38.0834 149.523 37.931 149.667 37.8096C149.734 37.7531 149.832 37.6963 149.963 37.6384C149.607 37.5937 149.343 37.4872 149.173 37.3199C149.002 37.1531 148.917 36.9484 148.917 36.705C148.917 36.5162 148.968 36.3436 149.071 36.1874C149.175 36.0319 149.312 35.9232 149.484 35.8612C149.657 35.7997 149.908 35.7688 150.239 35.7688H151.885V39.1992H151.393Z" fill="white"/>
<path d="M7.68503 30.2773H4.78516V8.84371H7.68503V30.2773Z" fill="#981A1F"/>
<path d="M15.9742 30.2773H13.0742V8.84371H15.9742V30.2773Z" fill="#981A1F"/>
<path d="M16.1135 7.3526V4.43541H4.77734V7.3526H8.94331V31.8152H4.77734V34.7324H16.1135V31.8152H11.8433V7.3526H16.1135Z" fill="#981A1F"/>
<path d="M20.7896 2.91797H0V0.000777483H20.7896V2.91797Z" fill="#981A1F"/>
<path d="M20.7896 39.1328H0V36.2156H20.7896V39.1328Z" fill="#981A1F"/>
<path d="M47.8438 0.268751H48.3348V1.77141C48.5594 1.77141 48.7171 1.73133 48.8083 1.65069C48.8995 1.5703 49.0159 1.37715 49.1577 1.07175C49.2607 0.846733 49.3454 0.688353 49.4121 0.595403C49.4789 0.502453 49.5737 0.424472 49.697 0.361459C49.8204 0.298446 49.9562 0.266818 50.1048 0.266818C50.2937 0.266818 50.3933 0.268268 50.4036 0.271165V0.664454C50.3868 0.664454 50.3537 0.663728 50.305 0.662038C50.2507 0.660589 50.2176 0.659624 50.2058 0.659624C50.0489 0.659624 49.9325 0.694872 49.8564 0.765128C49.7789 0.835384 49.6906 0.98507 49.5907 1.21443C49.4659 1.50463 49.3603 1.68739 49.2744 1.76296C49.1882 1.83877 49.085 1.89912 48.9655 1.94427C49.205 2.00511 49.4414 2.2096 49.6742 2.5575L50.4391 3.69922H49.8286L49.2084 2.76779C49.038 2.51091 48.8954 2.33418 48.7805 2.23809C48.6655 2.142 48.5172 2.09444 48.3348 2.09444V3.69922H47.8438V0.268751Z" fill="white"/>
<path d="M53.8074 2.0357C53.8074 2.44902 53.9274 2.77447 54.1679 3.01252C54.4084 3.25057 54.7105 3.36935 55.0732 3.36935C55.4428 3.36935 55.7471 3.24936 55.9861 3.00914C56.2249 2.76868 56.3442 2.42778 56.3442 1.98644C56.3442 1.70711 56.2933 1.46351 56.1913 1.25516C56.0889 1.04704 55.9396 0.885526 55.7428 0.770847C55.5462 0.656168 55.3257 0.59895 55.0809 0.59895C54.7329 0.59895 54.4341 0.709044 54.1835 0.929951C53.9325 1.15086 53.8074 1.51928 53.8074 2.0357ZM53.3008 2.02845C53.3008 1.45941 53.4664 1.01324 53.7971 0.691178C54.1278 0.369111 54.555 0.208077 55.0782 0.208077C55.4212 0.208077 55.7298 0.283645 56.0051 0.435021C56.2801 0.586398 56.4899 0.797164 56.6341 1.06781C56.7786 1.33869 56.8509 1.64555 56.8509 1.98886C56.8509 2.33676 56.7748 2.64796 56.6229 2.92246C56.4712 3.19697 56.2559 3.40508 55.9773 3.54608C55.6986 3.68731 55.3981 3.75781 55.0758 3.75781C54.7264 3.75781 54.4141 3.67983 54.1391 3.52387C53.8636 3.36766 53.6553 3.15496 53.5137 2.88505C53.3718 2.61513 53.3008 2.32976 53.3008 2.02845Z" fill="white"/>
<path d="M60.3483 0.268677H62.6725V3.69914H62.1815V0.673793H60.8394V2.44033C60.8394 2.79934 60.8214 3.06201 60.7849 3.22908C60.7489 3.39591 60.6721 3.5258 60.5559 3.61851C60.4395 3.71122 60.2917 3.75781 60.1129 3.75781C60.0047 3.75781 59.8748 3.73922 59.7227 3.7018L59.8064 3.2991C59.8875 3.33048 59.9567 3.34593 60.014 3.34593C60.1254 3.34593 60.2091 3.3073 60.2646 3.23005C60.3205 3.15279 60.3483 2.97075 60.3483 2.68369V0.268677Z" fill="white"/>
<path d="M66.3444 0.268677H68.6688V3.69914H68.1775V0.673793H66.8357V2.44033C66.8357 2.79934 66.8175 3.06201 66.7812 3.22908C66.745 3.39591 66.6684 3.5258 66.552 3.61851C66.4356 3.71122 66.2878 3.75781 66.109 3.75781C66.0008 3.75781 65.8709 3.73922 65.7188 3.7018L65.8025 3.2991C65.8836 3.33048 65.9528 3.34593 66.0101 3.34593C66.1215 3.34593 66.2052 3.3073 66.2607 3.23005C66.3166 3.15279 66.3444 2.97075 66.3444 2.68369V0.268677Z" fill="white"/>
<path d="M72.0781 3.69922V0.268752H74.7623V0.673868H72.5694V1.72457H74.6231V2.12679H72.5694V3.29458H74.848V3.69922H72.0781Z" fill="white"/>
<path d="M78.125 0.268752H80.5252V0.673868H78.616V3.69922H78.125V0.268752Z" fill="white"/>
<path d="M83.5273 0.268752H83.973V2.98555L85.9477 0.268752H86.4417V3.69922H85.996V0.989659L84.0184 3.69922H83.5273V0.268752Z" fill="white"/>
<path d="M92.2841 0.648036H91.109C90.834 0.648036 90.6326 0.700185 90.5052 0.804965C90.3777 0.909504 90.3139 1.04277 90.3139 1.20501C90.3139 1.31583 90.3468 1.41844 90.4128 1.5126C90.4788 1.60724 90.5748 1.67556 90.7015 1.71853C90.8282 1.76151 91.0037 1.78275 91.2281 1.78275H92.2841V0.648036ZM92.2841 3.69922V2.17604H91.7143C91.5876 2.17604 91.4964 2.18135 91.4407 2.19246C91.3646 2.2096 91.29 2.23978 91.2168 2.28372C91.1433 2.32742 91.0601 2.40395 90.9674 2.51284C90.8743 2.6222 90.7565 2.77961 90.6129 2.98555L90.1214 3.69922H89.5039L90.1493 2.76585C90.2779 2.58309 90.4137 2.43123 90.557 2.30955C90.6245 2.2533 90.7236 2.19632 90.8534 2.13862C90.4973 2.09347 90.234 1.98725 90.0633 1.82018C89.8929 1.65335 89.8077 1.44837 89.8077 1.20501C89.8077 1.01646 89.8593 0.843836 89.9621 0.687872C90.065 0.531909 90.2025 0.423265 90.3746 0.36146C90.5469 0.299895 90.7985 0.268752 91.1292 0.268752H92.7751V3.69922H92.2841Z" fill="white"/>
<path d="M100.876 2.29072H102.134L101.746 1.3407C101.628 1.05219 101.54 0.815104 101.483 0.629204C101.436 0.849146 101.369 1.06764 101.283 1.28444L100.876 2.29072ZM99.8047 3.69922L101.23 0.268752H101.759L103.278 3.69922H102.719L102.286 2.66059H100.734L100.326 3.69922H99.8047Z" fill="white"/>
<path d="M108.367 0.674311H107.074V0.849589C107.074 1.14148 107.046 1.54056 106.988 2.0466C106.932 2.55287 106.821 2.96886 106.656 3.29503H108.367V0.674311ZM106.6 0.269195H108.858V3.29503H109.193V4.5H108.755V3.69966H106.301V4.5H105.863V3.29503H106.152C106.451 2.87856 106.6 2.03694 106.6 0.77016V0.269195Z" fill="white"/>
<path d="M112.839 3.29458H113.762C113.922 3.29458 114.033 3.28903 114.097 3.27793C114.21 3.25934 114.305 3.22843 114.381 3.18449C114.457 3.14079 114.519 3.0773 114.568 2.99376C114.617 2.91047 114.641 2.81414 114.641 2.70477C114.641 2.57705 114.606 2.466 114.535 2.37136C114.464 2.2772 114.366 2.21081 114.24 2.17266C114.115 2.13452 113.933 2.1152 113.697 2.1152H112.839V3.29458ZM112.839 1.71032H113.641C113.859 1.71032 114.015 1.69729 114.109 1.67049C114.235 1.63621 114.329 1.57947 114.392 1.4998C114.455 1.42013 114.487 1.32017 114.487 1.20018C114.487 1.08647 114.457 0.986279 114.398 0.899606C114.339 0.812933 114.255 0.753783 114.145 0.721673C114.035 0.689805 113.847 0.673868 113.58 0.673868H112.839V1.71032ZM112.348 3.69922V0.268752H113.74C114.024 0.268752 114.251 0.303516 114.422 0.373048C114.594 0.44258 114.728 0.549292 114.825 0.693666C114.922 0.838041 114.971 0.988693 114.971 1.14659C114.971 1.29289 114.928 1.43123 114.841 1.56064C114.756 1.69005 114.625 1.79458 114.451 1.87426C114.676 1.93485 114.848 2.03891 114.969 2.18546C115.09 2.33201 115.15 2.50511 115.15 2.70477C115.15 2.86556 115.114 3.01501 115.04 3.15286C114.967 3.2912 114.876 3.39743 114.768 3.47227C114.66 3.54736 114.525 3.60385 114.361 3.64224C114.199 3.68039 113.999 3.69922 113.762 3.69922H112.348Z" fill="white"/>
<path d="M118.776 2.0357C118.776 2.44902 118.896 2.77447 119.137 3.01252C119.377 3.25057 119.679 3.36935 120.042 3.36935C120.412 3.36935 120.716 3.24936 120.955 3.00914C121.194 2.76868 121.313 2.42778 121.313 1.98644C121.313 1.70711 121.262 1.46351 121.159 1.25516C121.057 1.04704 120.908 0.885526 120.712 0.770847C120.515 0.656168 120.294 0.59895 120.05 0.59895C119.702 0.59895 119.402 0.709044 119.152 0.929951C118.901 1.15086 118.776 1.51928 118.776 2.0357ZM118.27 2.02845C118.27 1.45941 118.435 1.01324 118.766 0.691178C119.097 0.369111 119.524 0.208077 120.047 0.208077C120.389 0.208077 120.699 0.283645 120.974 0.435021C121.249 0.586398 121.459 0.797164 121.603 1.06781C121.747 1.33869 121.819 1.64555 121.819 1.98886C121.819 2.33676 121.743 2.64796 121.592 2.92246C121.44 3.19697 121.224 3.40508 120.946 3.54608C120.667 3.68731 120.367 3.75781 120.045 3.75781C119.695 3.75781 119.383 3.67983 119.107 3.52387C118.833 3.36766 118.624 3.15496 118.482 2.88505C118.34 2.61513 118.27 2.32976 118.27 2.02845Z" fill="white"/>
<path d="M125.051 0.268751H125.542V1.77141C125.766 1.77141 125.924 1.73133 126.015 1.65069C126.106 1.5703 126.223 1.37715 126.365 1.07175C126.468 0.846733 126.553 0.688353 126.619 0.595403C126.686 0.502453 126.781 0.424472 126.904 0.361459C127.027 0.298446 127.163 0.266818 127.312 0.266818C127.501 0.266818 127.6 0.268268 127.61 0.271165V0.664454C127.594 0.664454 127.56 0.663728 127.512 0.662038C127.458 0.660589 127.425 0.659624 127.413 0.659624C127.256 0.659624 127.139 0.694872 127.064 0.765128C126.986 0.835384 126.897 0.98507 126.798 1.21443C126.673 1.50463 126.567 1.68739 126.481 1.76296C126.395 1.83877 126.292 1.89912 126.172 1.94427C126.412 2.00511 126.648 2.2096 126.881 2.5575L127.646 3.69922H127.036L126.415 2.76779C126.245 2.51091 126.102 2.33418 125.988 2.23809C125.873 2.142 125.724 2.09444 125.542 2.09444V3.69922H125.051V0.268751Z" fill="white"/>
<path d="M131.321 2.29072H132.579L132.192 1.3407C132.074 1.05219 131.986 0.815104 131.929 0.629204C131.881 0.849146 131.815 1.06764 131.729 1.28444L131.321 2.29072ZM130.25 3.69922L131.676 0.268752H132.205L133.724 3.69922H133.164L132.731 2.66059H131.179L130.772 3.69922H130.25Z" fill="white"/>
<path d="M137.653 3.69922V0.673868H136.43V0.268752H139.372V0.673868H138.144V3.69922H137.653Z" fill="white"/>
<path d="M142.826 2.0357C142.826 2.44902 142.947 2.77447 143.187 3.01252C143.428 3.25057 143.729 3.36935 144.092 3.36935C144.462 3.36935 144.766 3.24936 145.006 3.00914C145.244 2.76868 145.364 2.42778 145.364 1.98644C145.364 1.70711 145.313 1.46351 145.21 1.25516C145.108 1.04704 144.959 0.885526 144.762 0.770847C144.566 0.656168 144.345 0.59895 144.1 0.59895C143.752 0.59895 143.453 0.709044 143.203 0.929951C142.952 1.15086 142.826 1.51928 142.826 2.0357ZM142.32 2.02845C142.32 1.45941 142.486 1.01324 142.816 0.691178C143.147 0.369111 143.574 0.208077 144.098 0.208077C144.44 0.208077 144.749 0.283645 145.024 0.435021C145.299 0.586398 145.509 0.797164 145.653 1.06781C145.798 1.33869 145.87 1.64555 145.87 1.98886C145.87 2.33676 145.794 2.64796 145.642 2.92246C145.49 3.19697 145.275 3.40508 144.997 3.54608C144.718 3.68731 144.418 3.75781 144.095 3.75781C143.746 3.75781 143.433 3.67983 143.158 3.52387C142.883 3.36766 142.675 3.15496 142.533 2.88505C142.391 2.61513 142.32 2.32976 142.32 2.02845Z" fill="white"/>
<path d="M149.565 3.29458H150.489C150.648 3.29458 150.759 3.28903 150.823 3.27793C150.936 3.25934 151.031 3.22843 151.107 3.18449C151.183 3.14079 151.245 3.0773 151.294 2.99376C151.343 2.91047 151.367 2.81414 151.367 2.70477C151.367 2.57705 151.333 2.466 151.261 2.37136C151.191 2.2772 151.092 2.21081 150.966 2.17266C150.841 2.13452 150.66 2.1152 150.424 2.1152H149.565V3.29458ZM149.565 1.71032H150.368C150.585 1.71032 150.741 1.69729 150.836 1.67049C150.961 1.63621 151.055 1.57947 151.118 1.4998C151.182 1.42013 151.214 1.32017 151.214 1.20018C151.214 1.08647 151.184 0.986279 151.125 0.899606C151.065 0.812933 150.981 0.753783 150.872 0.721673C150.762 0.689805 150.573 0.673868 150.307 0.673868H149.565V1.71032ZM149.074 3.69922V0.268752H150.466C150.75 0.268752 150.977 0.303516 151.149 0.373048C151.32 0.44258 151.454 0.549292 151.551 0.693666C151.648 0.838041 151.697 0.988693 151.697 1.14659C151.697 1.29289 151.654 1.43123 151.568 1.56064C151.482 1.69005 151.352 1.79458 151.178 1.87426C151.403 1.93485 151.575 2.03891 151.695 2.18546C151.816 2.33201 151.877 2.50511 151.877 2.70477C151.877 2.86556 151.84 3.01501 151.767 3.15286C151.693 3.2912 151.603 3.39743 151.494 3.47227C151.386 3.54736 151.251 3.60385 151.088 3.64224C150.925 3.68039 150.725 3.69922 150.489 3.69922H149.074Z" fill="white"/>
</svg>
